<?xml version="1.0" standalone="no"?>
<!DOCTYPE svg PUBLIC "-//W3C//DTD SVG 20010904//EN"
 "http://www.w3.org/TR/2001/REC-SVG-20010904/DTD/svg10.dtd">
<svg version="1.0" xmlns="http://www.w3.org/2000/svg"
 width="700.000000pt" height="700.000000pt" viewBox="0 0 700.000000 700.000000"
 preserveAspectRatio="xMidYMid meet">
<metadata>
Created by potrace 1.11, written by Peter Selinger 2001-2013
</metadata>
<g transform="translate(0.000000,700.000000) scale(0.100000,-0.100000)"
fill="#000000" stroke="none">
<path d="M319 6780 c-180 -5 -188 -6 -222 -30 -44 -32 -70 -65 -85 -109 -16
-45 -17 -889 -1 -944 13 -49 63 -105 114 -128 37 -17 83 -19 690 -19 405 0
664 4 686 10 57 16 101 51 128 103 22 43 24 61 25 167 1 65 4 122 8 125 10 11
218 7 257 -4 49 -15 98 -56 123 -104 22 -42 22 -47 22 -577 l1 -535 -750 -5
c-836 -6 -781 -1 -843 -76 -38 -45 -50 -92 -46 -177 16 -375 245 -717 587
-877 107 -50 248 -88 351 -95 45 -2 121 -7 170 -10 49 -3 92 -7 96 -10 4 -2
22 -7 41 -10 51 -9 174 -52 232 -81 292 -147 498 -423 557 -747 16 -85 20
-434 5 -453 -8 -10 -385 -204 -397 -204 -2 0 -3 114 -3 253 0 285 -6 352 -41
446 -65 173 -201 305 -381 368 l-78 28 -525 0 c-523 0 -525 0 -595 -23 -101
-34 -182 -82 -251 -149 -75 -74 -87 -90 -123 -160 -71 -139 -66 -59 -68 -1068
-1 -595 1 -929 8 -965 22 -116 103 -256 195 -338 60 -53 149 -104 235 -134 63
-23 69 -23 594 -23 573 0 555 -1 681 56 103 46 220 160 276 267 67 129 71 160
72 593 l1 386 190 96 c104 53 196 97 204 99 10 2 14 -12 16 -57 3 -96 49 -167
127 -200 33 -13 144 -15 898 -15 827 0 863 1 903 19 79 36 119 101 121 198 0
35 3 63 6 62 3 0 95 -46 205 -102 l201 -102 0 -385 c1 -327 3 -395 18 -449 48
-185 166 -329 336 -412 120 -58 135 -59 700 -56 502 2 517 3 580 24 187 64
329 204 398 395 l27 73 2 920 c2 872 1 924 -17 989 -61 226 -227 391 -450 447
-79 19 -106 20 -594 17 l-511 -4 -71 -26 c-82 -30 -138 -63 -211 -125 -55 -46
-149 -177 -159 -221 -4 -15 -10 -32 -15 -38 -23 -29 -35 -181 -34 -426 0 -142
-1 -258 -2 -258 -1 0 -91 44 -199 98 -123 61 -199 104 -203 116 -11 29 -4 380
9 444 44 218 134 394 276 537 133 135 242 204 409 260 116 39 161 46 400 60
111 6 262 47 369 99 251 122 433 326 524 586 48 140 70 309 50 389 -13 51 -61
108 -112 131 -39 19 -72 20 -781 22 l-740 3 1 535 c0 530 0 535 22 577 23 44
68 85 114 102 23 9 156 15 248 12 l25 -1 1 -123 c1 -141 19 -197 75 -240 64
-48 71 -48 774 -45 608 3 663 4 692 21 44 23 72 54 94 102 17 37 19 73 19 490
0 423 -2 453 -20 493 -10 23 -32 54 -47 68 -60 56 -42 54 -758 55 -461 0 -670
-4 -691 -11 -48 -19 -93 -59 -116 -103 -18 -36 -21 -60 -22 -167 -1 -102 -4
-125 -16 -127 -8 -1 -82 -4 -165 -6 -122 -3 -162 -8 -215 -26 -156 -54 -291
-172 -360 -316 -50 -104 -62 -170 -64 -335 l-2 -135 -1024 0 -1025 0 -2 150
c-1 131 -5 161 -27 231 -43 136 -130 253 -246 330 -119 79 -205 101 -396 103
-76 1 -141 4 -144 7 -3 3 -5 60 -6 127 -1 104 -4 128 -22 163 -25 49 -69 88
-114 103 -36 12 -878 20 -1199 11z m922 -417 c1 -5 2 -97 3 -205 l1 -197 -417
1 -418 0 0 204 0 204 415 0 c228 0 416 -3 416 -7z m5349 -197 l0 -204 -417 1
-417 2 -1 203 0 202 418 0 417 0 0 -204z m-3705 -1147 c0 -204 27 -309 113
-436 109 -161 324 -269 522 -262 113 4 274 60 347 122 14 12 41 35 60 50 58
50 130 171 159 265 23 75 27 106 28 232 l2 145 204 3 205 2 0 -327 0 -328 25
-50 c16 -32 41 -61 68 -80 l44 -30 734 -5 735 -5 -35 -70 c-68 -136 -197 -248
-346 -299 -73 -25 -118 -31 -290 -41 -154 -8 -282 -37 -435 -96 -438 -170
-770 -561 -879 -1037 -17 -73 -16 -69 -16 -82 0 -7 -216 -10 -629 -10 l-629 0
-6 28 c-3 15 -8 39 -10 53 -2 14 -14 62 -26 105 -101 361 -363 689 -693 869
-67 36 -257 118 -257 110 0 -2 -19 3 -42 11 -24 8 -59 17 -78 20 -19 3 -54 10
-77 15 -23 5 -84 11 -135 14 -183 10 -222 16 -297 41 -148 50 -277 161 -347
299 l-35 70 733 5 c733 5 733 5 768 27 41 25 62 49 86 95 16 29 18 71 20 363
0 182 2 331 3 333 0 1 92 2 204 2 l202 0 0 -121z m820 -6 c-1 -110 -5 -134
-23 -170 -76 -146 -288 -146 -364 0 -18 35 -22 61 -23 162 -1 66 0 123 2 128
2 4 95 7 207 7 l202 0 -1 -127z m-2143 -2369 c70 -50 90 -101 92 -239 1 -63 0
-119 -3 -124 -3 -5 -64 -11 -136 -12 -145 -4 -180 -17 -231 -84 -81 -106 -24
-279 104 -315 20 -5 89 -10 152 -10 l115 0 -1 -197 c-1 -109 -2 -201 -3 -205
0 -5 -52 -8 -115 -8 -62 0 -128 -5 -147 -11 -152 -51 -193 -243 -73 -348 46
-41 90 -51 220 -51 81 0 113 -3 116 -12 2 -7 4 -63 3 -124 -2 -135 -23 -190
-93 -239 l-44 -30 -456 -3 c-494 -3 -514 -1 -575 49 -61 50 -77 101 -77 239
l0 120 133 0 c121 0 138 2 178 23 52 28 98 89 109 144 9 53 -10 125 -46 170
-46 57 -98 72 -246 72 l-128 1 0 205 0 205 123 0 c144 0 182 9 231 53 100 92
88 244 -25 323 -41 28 -46 29 -187 32 l-144 4 4 133 c3 130 4 135 33 176 19
27 50 54 85 71 l54 29 467 -3 467 -3 44 -31z m4913 11 c53 -26 89 -70 105
-126 6 -19 10 -85 10 -146 l0 -113 -122 0 c-129 0 -174 -12 -225 -57 -32 -28
-63 -101 -63 -148 0 -47 31 -120 63 -147 20 -19 99 -63 105 -59 1 0 56 1 122
1 l120 0 0 -205 0 -205 -120 0 c-144 0 -127 2 -170 -21 -76 -41 -115 -99 -119
-181 -3 -62 36 -137 93 -175 39 -27 47 -28 179 -31 l137 -4 -1 -121 c0 -67 -6
-136 -12 -153 -18 -47 -58 -90 -104 -113 -41 -20 -52 -21 -517 -18 l-474 2
-44 30 c-23 17 -54 50 -67 74 -21 39 -24 57 -25 172 l-2 129 125 0 c146 0 188
14 238 75 70 85 63 198 -17 276 -50 47 -96 59 -231 59 l-114 0 0 205 0 205
123 0 c162 0 204 17 259 103 42 67 33 176 -21 235 -51 57 -82 67 -226 72
l-135 5 1 125 c2 165 21 206 121 260 34 18 60 19 497 20 l461 0 50 -25z
m-2360 -587 l0 -203 -615 0 -615 0 0 203 0 202 615 0 615 0 0 -202z"/>
<path d="M3022 3899 c-44 -13 -115 -85 -128 -129 -6 -20 -10 -137 -9 -280 1
-241 1 -246 25 -290 14 -24 45 -58 68 -75 38 -26 52 -30 112 -30 60 0 74 4
112 30 23 17 54 51 68 75 24 45 24 48 24 300 0 253 0 255 -24 300 -35 63 -96
103 -162 106 -29 2 -68 -1 -86 -7z"/>
<path d="M3847 3900 c-45 -14 -95 -58 -119 -103 -21 -40 -22 -55 -22 -297 0
-253 0 -255 24 -300 14 -24 45 -58 68 -75 38 -26 52 -30 112 -30 60 0 74 4
112 30 23 17 54 51 68 75 24 45 25 47 25 300 -1 253 -1 255 -25 300 -35 62
-92 100 -161 105 -29 3 -67 0 -82 -5z"/>
</g>
</svg>
